<svg id="Layer_1" data-name="Layer 1" xmlns="http://www.w3.org/2000/svg" viewBox="0 0 970.91 830.29"><defs><style>.cls-1{opacity:0.15;}</style></defs><title>wunderBG</title><g class="cls-1"><path d="M995.41,193.86c0-90.56-73.4-164-163.9-164a163.94,163.94,0,1,0,163.9,164Z" transform="translate(-24.5 -29.9)"/><path d="M352.39,258c0-90.53-73.44-164-163.93-164a164,164,0,0,0-164,164c0,90.52,73.41-19.83,164-19.83S352.39,348.51,352.39,258Z" transform="translate(-24.5 -29.9)"/><path d="M126,687.81c97,49.34,179.15,71.13,402,71.13,150.53,0,242.64-24.54,379.16-87.07v58c-149.71,88-236.85,130.29-412.79,130.29-143.11,0-263.48-52-379.49-136.72Z" transform="translate(-24.5 -29.9)"/><path d="M25.42,740.23c27.41-4.43,50.69-13.06,92.46-48.22,28.19-23.72,42.23-42,56.17-77.5l12.73,15.23c-11.64,43-21.93,63.93-55,91.64C105,744,75.37,755.49,37.87,755Z" transform="translate(-24.5 -29.9)"/></g></svg>